<?xml version="1.0" encoding="iso-8859-1"?>
<!-- Generator: Adobe Illustrator 19.0.0, SVG Export Plug-In . SVG Version: 6.00 Build 0)  -->
<svg version="1.1" id="Capa_1" xmlns="http://www.w3.org/2000/svg" xmlns:xlink="http://www.w3.org/1999/xlink" x="0px" y="0px"
	 viewBox="0 0 512 512" style="enable-background:new 0 0 512 512;" xml:space="preserve">
<g>
	<g>
		<path d="M285.096,0h-58.192c-16.437,0-29.762,13.325-29.762,29.762v3.816h117.716v-3.816C314.858,13.325,301.533,0,285.096,0z"/>
	</g>
</g>
<g>
	<g>
		<path d="M98.464,151.631l24.383,332.782c1.14,15.552,14.09,27.587,29.683,27.587h206.94c15.593,0,28.543-12.035,29.682-27.587
			l24.383-332.782H98.464z M183.004,463.57c-0.252,0.013-0.505,0.019-0.755,0.019c-7.878,0-14.453-6.183-14.85-14.139
			l-11.224-224.595c-0.41-8.208,5.912-15.195,14.12-15.605c8.206-0.412,15.194,5.911,15.605,14.12l11.224,224.595
			C197.534,456.173,191.212,463.16,183.004,463.57z M270.881,448.708c0,8.218-6.663,14.881-14.881,14.881
			s-14.881-6.662-14.881-14.881V224.113c0-8.218,6.662-14.881,14.881-14.881s14.881,6.662,14.881,14.881V448.708z M344.601,449.45
			c-0.398,7.955-6.973,14.139-14.85,14.139c-0.25,0-0.502-0.006-0.755-0.019c-8.208-0.41-14.53-7.397-14.12-15.605L326.1,223.371
			c0.41-8.208,7.402-14.528,15.605-14.12c8.208,0.41,14.53,7.397,14.12,15.605L344.601,449.45z"/>
	</g>
</g>
<g>
	<g>
		<path d="M432.555,63.34H79.445c-3.895,0-7.063,3.168-7.063,7.063v44.404c0,3.894,3.168,7.063,7.063,7.063h3.008h347.094h3.008
			c3.895,0,7.063-3.168,7.063-7.063V70.403C439.618,66.508,436.45,63.34,432.555,63.34z"/>
	</g>
</g>
<g>
</g>
<g>
</g>
<g>
</g>
<g>
</g>
<g>
</g>
<g>
</g>
<g>
</g>
<g>
</g>
<g>
</g>
<g>
</g>
<g>
</g>
<g>
</g>
<g>
</g>
<g>
</g>
<g>
</g>
</svg>
